<svg xmlns="http://www.w3.org/2000/svg" viewBox="0 0 520 120" role="img" aria-labelledby="title desc">
  <title id="title">MikroTik MTCNA</title>
  <desc id="desc">Logo de certificacion MikroTik Certified Network Associate.</desc>
  <defs>
    <linearGradient id="g1" x1="0" y1="0" x2="1" y2="1">
      <stop offset="0%" stop-color="#8fd0ff"/>
      <stop offset="100%" stop-color="#00d68f"/>
    </linearGradient>
  </defs>
  <rect x="0" y="0" width="520" height="120" rx="14" fill="#0b1b31"/>
  <g fill="url(#g1)">
    <path d="M57 34c22 0 40 11 53 29-16-10-31-13-45-10 11 6 20 15 26 27-12-8-23-10-33-7 10 7 16 15 20 23-17-10-27-23-31-39-3-10-2-18 1-23 3 0 6 0 9 0Z"/>
  </g>
  <text x="140" y="54" fill="#e8f4ff" font-family="Segoe UI, Arial, sans-serif" font-size="30" font-weight="700">MikroTik</text>
  <text x="140" y="84" fill="#8fd0ff" font-family="Segoe UI, Arial, sans-serif" font-size="20" font-weight="700">Certified Network Associate</text>
  <rect x="415" y="36" width="80" height="48" rx="24" fill="url(#g1)"/>
  <text x="455" y="67" text-anchor="middle" fill="#082033" font-family="Segoe UI, Arial, sans-serif" font-size="17" font-weight="800">MTCNA</text>
</svg>
